<svg width="175" height="28" viewBox="0 0 175 28" fill="none" xmlns="http://www.w3.org/2000/svg">
<path d="M44.4474 17.159C44.4474 16.599 44.494 16.479 44.8666 16.159L49.4773 12.479C49.617 12.359 49.6636 12.239 49.6636 12.079V11.759C49.6636 11.439 49.3376 11.199 49.0116 11.199H45.0994C44.7268 11.199 44.4474 10.959 44.4474 10.639V0.56C44.4474 0.24 44.7268 0 45.0994 0H51.2471C51.5731 0 51.8992 0.24 51.8992 0.56V9.519C51.8992 9.839 52.1786 10.079 52.5512 10.079H52.9238C53.1101 10.079 53.2498 10.039 53.3895 9.919L58.3717 5.959C58.7443 5.639 58.884 5.599 59.4895 5.599H64.6591C68.5713 5.599 70.5274 7.279 70.5274 10.639V16.558C70.5274 17.118 70.4808 17.278 70.1082 17.558L57.4414 27.637C57.0688 27.957 56.9291 27.997 56.2771 27.997H50.3157C46.4035 27.997 44.4486 26.317 44.4486 22.957V17.158L44.4474 17.159ZM62.4224 11.199H52.55C52.1774 11.199 51.898 11.439 51.898 11.759V21.838C51.898 22.158 52.1774 22.398 52.55 22.398H62.4224C62.7485 22.398 63.0745 22.158 63.0745 21.838V11.759C63.0745 11.439 62.7485 11.199 62.4224 11.199Z" fill="white"/>
<path d="M71.6882 22.9581V17.0391C71.6882 16.4791 71.7348 16.3591 72.1074 16.0391L84.7742 5.9601C85.1468 5.6401 85.2865 5.6001 85.9386 5.6001H92.3657C96.2779 5.6001 98.2328 7.2801 98.2328 10.6401V16.5591C98.2328 17.1191 98.1862 17.2391 97.8136 17.5591L85.1468 27.6381C84.7742 27.9581 84.6345 27.9981 83.9825 27.9981H77.5553C73.6432 27.9981 71.6882 26.3181 71.6882 22.9581ZM79.7909 22.3981H90.129C90.5016 22.3981 90.781 22.1581 90.781 21.8381V11.7591C90.781 11.4391 90.5016 11.1991 90.129 11.1991H79.7909C79.4648 11.1991 79.1388 11.4391 79.1388 11.7591V21.8381C79.1388 22.1581 79.4648 22.3981 79.7909 22.3981Z" fill="white"/>
<path d="M99.396 22.9581V17.0391C99.396 16.4791 99.4426 16.3591 99.8152 16.0391L112.482 5.9601C112.855 5.6401 112.994 5.6001 113.646 5.6001H120.072C123.984 5.6001 125.941 7.2801 125.941 10.6401V16.5591C125.941 17.1191 125.894 17.2391 125.521 17.5591L112.855 27.6381C112.482 27.9581 112.342 27.9981 111.69 27.9981H105.264C101.352 27.9981 99.396 26.3181 99.396 22.9581ZM107.5 22.3981H117.838C118.211 22.3981 118.49 22.1581 118.49 21.8381V11.7591C118.49 11.4391 118.211 11.1991 117.838 11.1991H107.5C107.174 11.1991 106.848 11.4391 106.848 11.7591V21.8381C106.848 22.1581 107.174 22.3981 107.5 22.3981Z" fill="white"/>
<path d="M123.145 27.0779L128.361 22.9579C128.78 22.6379 129.2 22.3979 130.038 22.3979H142.332C142.658 22.3979 142.984 22.1579 142.984 21.8379V15.7979C142.984 15.3979 143.264 15.1979 143.962 15.1979H149.69C150.109 15.1979 150.342 15.3979 150.342 15.7579V17.1579C150.342 17.4379 150.249 17.6379 150.016 17.8379L137.442 27.8369C137.302 27.9569 137.163 27.9969 136.976 27.9969H123.564C122.772 27.9969 122.54 27.5569 123.145 27.0769V27.0779ZM127.476 16.5189C127.476 16.2389 127.57 16.0389 127.802 15.8389L140.423 5.7599C140.562 5.6399 140.702 5.5999 140.888 5.5999H153.555V0.959902C153.555 0.639902 153.835 0.399902 154.207 0.399902H159.424C160.681 0.399902 161.007 0.639902 161.007 0.959902V9.5189C161.007 9.8789 161.193 10.0789 161.566 10.0789C161.799 10.0789 161.985 10.0389 162.218 9.8389L167.294 5.7589C167.434 5.6389 167.574 5.5989 167.714 5.5989H174.233C174.978 5.5989 175.164 6.1589 174.698 6.5589L169.296 11.0389C169.156 11.1589 169.017 11.1989 168.83 11.1989H161.659C161.286 11.1989 161.007 11.4389 161.007 11.7589V21.8379C161.007 22.1579 161.286 22.3979 161.659 22.3979H174.233C174.978 22.3979 175.164 22.9579 174.698 23.3579L169.296 27.8379C169.156 27.9579 169.017 27.9979 168.83 27.9979H159.424C155.511 27.9979 153.555 26.3179 153.555 22.9579V16.5989C153.555 16.4389 153.602 16.3189 153.742 16.1989L158.585 12.2389C158.771 12.0789 158.865 11.9989 158.865 11.7189C158.865 11.3989 158.632 11.1989 158.213 11.1989H154.161C153.788 11.1989 153.509 10.9589 153.509 10.6389V7.2789C153.509 6.9989 153.229 6.7189 152.857 6.7189H152.484C152.298 6.7189 152.158 6.7589 152.018 6.8789L147.501 11.0389C147.361 11.1589 147.221 11.1989 147.035 11.1989H135.532C135.206 11.1989 134.88 11.4389 134.88 11.7589V17.7989C134.88 18.1989 134.601 18.3989 133.902 18.3989H128.127C127.708 18.3989 127.475 18.1989 127.475 17.8389V16.5189H127.476Z" fill="white"/>
<path d="M23.8841 14.8219C23.5802 14.6449 23.2181 14.5559 22.7966 14.5559C22.3751 14.5559 21.999 14.6449 21.6916 14.8219C21.3842 14.9989 21.149 15.2549 20.9872 15.5889C20.8253 15.9229 20.7438 16.3299 20.7438 16.8099C20.7438 17.2899 20.823 17.6929 20.9802 18.0199C21.1385 18.3469 21.3726 18.5969 21.6846 18.7709C21.9967 18.9449 22.3669 19.0349 22.7966 19.0419C23.2262 19.0349 23.5895 18.9469 23.8899 18.7759C24.1891 18.6059 24.4162 18.3519 24.5698 18.0139C24.7235 17.6769 24.805 17.2719 24.8132 16.7989C24.805 16.3189 24.7235 15.9139 24.5698 15.5839C24.4162 15.2539 24.1868 14.9999 23.8841 14.8219Z" fill="#653DF5"/>
<path d="M30.2274 5.59912H14.2503C13.5983 5.59912 13.4586 5.63912 13.086 5.95912L0.419162 16.0381C0.0465735 16.3581 0 16.4781 0 17.0381V22.9581C0 26.3171 1.95609 27.9971 5.86826 27.9971H21.8453C22.4962 27.9971 22.6359 27.9571 23.0085 27.6371L35.6765 17.5581C36.0479 17.2381 36.0945 17.1181 36.0945 16.5581V10.6391C36.0945 7.27912 34.1396 5.59912 30.2274 5.59912ZM16.2076 19.7761C15.4985 20.2731 14.5379 20.5221 13.3224 20.5221C12.3909 20.5221 11.598 20.3761 10.9413 20.0841C10.2858 19.7921 9.78277 19.3681 9.43463 18.8111C9.08649 18.2551 8.9165 17.5901 8.92465 16.8191C8.9165 16.0331 9.08417 15.3591 9.42881 14.7951C9.77345 14.2321 10.2788 13.8041 10.9471 13.5121C11.6154 13.2201 12.406 13.0741 13.3212 13.0741C14.106 13.0741 14.7964 13.1851 15.3925 13.4081C15.9875 13.6311 16.4591 13.9541 16.8072 14.3781C17.1554 14.8021 17.358 15.3101 17.415 15.9011H14.9978C14.9012 15.4981 14.7044 15.1881 14.4087 14.9731C14.1129 14.7571 13.7299 14.6461 13.2606 14.6391C12.8636 14.6461 12.5178 14.7311 12.2221 14.8951C11.9263 15.0581 11.6993 15.3021 11.5421 15.6251C11.3837 15.9481 11.3057 16.3431 11.3057 16.8091C11.3057 17.2751 11.3826 17.6771 11.5363 17.9931C11.69 18.3101 11.917 18.5491 12.2162 18.7131C12.5155 18.8761 12.8636 18.9581 13.2606 18.9581C13.738 18.9581 14.1246 18.8471 14.4203 18.6241C14.7161 18.4011 14.9163 18.0921 15.0211 17.6961H17.4383C17.3253 18.5861 16.9143 19.2801 16.2053 19.7771L16.2076 19.7761ZM26.647 18.8161C26.3071 19.3761 25.811 19.8001 25.159 20.0891C24.507 20.3781 23.7199 20.5221 22.7966 20.5221C21.8733 20.5221 21.0722 20.3761 20.4155 20.0841C19.76 19.7921 19.257 19.3681 18.9088 18.8111C18.5607 18.2551 18.3907 17.5871 18.3989 16.8081C18.3907 16.0291 18.5584 15.3581 18.903 14.7951C19.2477 14.2321 19.7495 13.8041 20.4097 13.5121C21.0699 13.2201 21.8651 13.0741 22.7966 13.0741C23.728 13.0741 24.4953 13.2201 25.1474 13.5121C25.7994 13.8041 26.2966 14.2301 26.6412 14.7901C26.9859 15.3501 27.1617 16.0231 27.1698 16.8091C27.1617 17.5881 26.9882 18.2571 26.647 18.8171V18.8161Z" fill="#653DF5"/>
</svg>
