<svg width="16" height="59" viewBox="0 0 16 59" fill="none" xmlns="http://www.w3.org/2000/svg">
<path fill-rule="evenodd" clip-rule="evenodd" d="M6.17829 7.41333L6.17752 3.08648L10.3848 5.25791L6.17829 7.4141V7.41333ZM15.4156 2.33676C15.4156 2.33676 15.2632 1.27543 14.797 0.808381C14.2042 0.194286 13.5406 0.191238 13.2366 0.15619C11.0575 0 7.78895 0 7.78895 0H7.7821C7.7821 0 4.51352 0 2.33448 0.15619C2.02971 0.191238 1.36686 0.194286 0.774095 0.808381C0.30781 1.27543 0.155429 2.33676 0.155429 2.33676C0.155429 2.33676 0 3.58324 0 4.82895V5.99772C0 7.24419 0.155429 8.49067 0.155429 8.49067C0.155429 8.49067 0.30781 9.55124 0.774095 10.019C1.36686 10.6324 2.14552 10.6133 2.49143 10.6773C3.73714 10.7954 7.7859 10.832 7.7859 10.832C7.7859 10.832 11.0575 10.8274 13.2366 10.672C13.5413 10.6354 14.2042 10.6324 14.797 10.019C15.2632 9.55124 15.4156 8.49067 15.4156 8.49067C15.4156 8.49067 15.571 7.24419 15.571 5.99772V4.82895C15.571 3.58324 15.4156 2.33676 15.4156 2.33676Z" fill="#F1F0F5"/>
<path fill-rule="evenodd" clip-rule="evenodd" d="M13.7253 57.048H1.96089C1.83076 57.048 1.70595 56.9963 1.61394 56.9043C1.52192 56.8123 1.47022 56.6875 1.47022 56.5574V49.2054H3.43111C3.176 49.5734 3.08978 50.2587 3.08978 50.6943C3.08978 53.3191 5.23022 55.4551 7.86133 55.4551C10.4924 55.4551 12.6329 53.3191 12.6329 50.6943C12.6329 50.2587 12.5716 49.5831 12.2551 49.2054H14.216V56.5583C14.216 56.6884 14.1643 56.8132 14.0723 56.9052C13.9803 56.9972 13.8555 57.0489 13.7253 57.0489M7.86133 47.6836C8.25705 47.6831 8.64898 47.7606 9.01476 47.9116C9.38053 48.0626 9.71298 48.2842 9.99312 48.5637C10.2733 48.8431 10.4956 49.1751 10.6475 49.5405C10.7994 49.9059 10.8778 50.2976 10.8782 50.6934C10.8778 51.0891 10.7994 51.4808 10.6475 51.8462C10.4956 52.2117 10.2733 52.5436 9.99312 52.8231C9.71298 53.1026 9.38053 53.3241 9.01476 53.4751C8.64898 53.6261 8.25705 53.7036 7.86133 53.7031C7.46562 53.7036 7.07368 53.6261 6.70791 53.4751C6.34214 53.3241 6.00969 53.1026 5.72954 52.8231C5.4494 52.5436 5.22705 52.2117 5.07518 51.8462C4.92332 51.4808 4.84491 51.0891 4.84444 50.6934C4.84539 49.8943 5.16364 49.1284 5.72923 48.564C6.29481 47.9996 7.06141 47.6829 7.86045 47.6836M11.7636 44.7929H13.2347C13.5049 44.7929 13.7244 45.0125 13.7244 45.2827V46.7538C13.7242 46.8836 13.6725 47.0081 13.5807 47.0999C13.4889 47.1917 13.3645 47.2434 13.2347 47.2436H11.7636C11.6337 47.2434 11.5093 47.1917 11.4175 47.0999C11.3257 47.0081 11.274 46.8836 11.2738 46.7538V45.2827C11.2738 45.0125 11.4933 44.7929 11.7636 44.7929ZM13.8222 42.832H1.86489C1.62026 42.8317 1.37797 42.8795 1.15184 42.9729C0.925712 43.0662 0.720186 43.2031 0.547003 43.3759C0.373821 43.5487 0.236375 43.7539 0.142518 43.9798C0.0486616 44.2057 0.000233282 44.4479 0 44.6925L0 56.6578C0 57.6854 0.835556 58.5183 1.86489 58.5183H13.8213C14.066 58.5186 14.3083 58.4708 14.5344 58.3774C14.7605 58.2841 14.966 58.1472 15.1392 57.9744C15.3124 57.8016 15.4498 57.5964 15.5437 57.3705C15.6376 57.1446 15.686 56.9024 15.6862 56.6578V44.6925C15.6862 43.6649 14.8507 42.832 13.8213 42.832" fill="#F1F0F5"/>
</svg>
